<?xml version="1.0" encoding="UTF-8" standalone="no"?>
<!-- Created with Inkscape (http://www.inkscape.org/) -->
<svg
   xmlns:dc="http://purl.org/dc/elements/1.1/"
   xmlns:cc="http://creativecommons.org/ns#"
   xmlns:rdf="http://www.w3.org/1999/02/22-rdf-syntax-ns#"
   xmlns:svg="http://www.w3.org/2000/svg"
   xmlns="http://www.w3.org/2000/svg"
   xmlns:sodipodi="http://sodipodi.sourceforge.net/DTD/sodipodi-0.dtd"
   xmlns:inkscape="http://www.inkscape.org/namespaces/inkscape"
   width="749.99994"
   height="147.8112"
   id="svg4379"
   sodipodi:version="0.32"
   inkscape:version="0.46"
   version="1.0"
   sodipodi:docname="Logo_Centre_Bell.svg"
   inkscape:output_extension="org.inkscape.output.svg.inkscape">
  <defs
     id="defs4381">
    <inkscape:perspective
       sodipodi:type="inkscape:persp3d"
       inkscape:vp_x="0 : 526.18109 : 1"
       inkscape:vp_y="0 : 1000 : 0"
       inkscape:vp_z="744.09448 : 526.18109 : 1"
       inkscape:persp3d-origin="372.04724 : 350.78739 : 1"
       id="perspective4387" />
    <inkscape:perspective
       id="perspective3240"
       inkscape:persp3d-origin="372.04724 : 350.78739 : 1"
       inkscape:vp_z="744.09448 : 526.18109 : 1"
       inkscape:vp_y="0 : 1000 : 0"
       inkscape:vp_x="0 : 526.18109 : 1"
       sodipodi:type="inkscape:persp3d" />
  </defs>
  <sodipodi:namedview
     id="base"
     pagecolor="#ffffff"
     bordercolor="#666666"
     borderopacity="1.0"
     inkscape:pageopacity="0.0"
     inkscape:pageshadow="2"
     inkscape:zoom="0.49497474"
     inkscape:cx="241.87243"
     inkscape:cy="-32.894005"
     inkscape:document-units="px"
     inkscape:current-layer="layer1"
     showgrid="false"
     inkscape:window-width="1280"
     inkscape:window-height="968"
     inkscape:window-x="0"
     inkscape:window-y="22"
     showguides="true"
     inkscape:guide-bbox="true" />
  <metadata
     id="metadata4384">
    <rdf:RDF>
      <cc:Work
         rdf:about="">
        <dc:format>image/svg+xml</dc:format>
        <dc:type
           rdf:resource="http://purl.org/dc/dcmitype/StillImage" />
      </cc:Work>
    </rdf:RDF>
  </metadata>
  <g
     inkscape:label="Calque 1"
     inkscape:groupmode="layer"
     id="layer1"
     transform="translate(-813.24567,-265.95231)">
    <g
       transform="matrix(3.7612253,0,0,-3.7612253,-1452.5362,2150.1642)"
       id="g2584"
       style="fill:#0066a4;fill-opacity:1;stroke:#0066a4;stroke-width:0.80749983;stroke-miterlimit:4;stroke-dasharray:none;stroke-opacity:1">
      <path
         d="M 632.297,466.86 L 630.997,468.709 C 629.448,467.16 627.699,466.01 625.799,465.26 C 623.9,464.511 621.901,464.161 619.852,464.211 C 616.803,464.261 614.204,464.96 612.005,466.36 C 609.806,467.809 608.107,469.758 606.957,472.207 C 605.807,474.656 605.208,477.405 605.158,480.504 C 605.208,483.553 605.758,486.302 606.907,488.751 C 608.057,491.2 609.706,493.099 611.855,494.549 C 614.004,495.948 616.603,496.648 619.652,496.698 C 621.751,496.698 623.7,496.298 625.55,495.498 C 627.349,494.648 628.998,493.449 630.498,491.9 L 631.997,493.499 C 630.248,495.248 628.398,496.548 626.349,497.447 C 624.3,498.297 622.101,498.747 619.752,498.747 C 616.303,498.697 613.305,497.897 610.755,496.348 C 608.206,494.798 606.257,492.599 604.908,489.85 C 603.558,487.102 602.859,483.953 602.809,480.404 C 602.859,476.856 603.558,473.657 604.908,470.908 C 606.257,468.159 608.256,466.01 610.805,464.461 C 613.354,462.911 616.353,462.111 619.902,462.062 C 622.151,462.062 624.35,462.461 626.499,463.261 C 628.648,464.061 630.548,465.26 632.297,466.86 z"
         style="fill:#0066a4;fill-opacity:1;fill-rule:nonzero;stroke:#0066a4;stroke-width:0.80749983;stroke-miterlimit:4;stroke-dasharray:none;stroke-opacity:1"
         id="path2586" />
    </g>
    <g
       transform="matrix(3.3788314,0,0,-3.3788314,-735.61968,1451.8057)"
       id="g4245"
       style="fill:#0066a4;fill-opacity:1;stroke:#0066a4;stroke-width:1.60934901;stroke-miterlimit:4;stroke-dasharray:none;stroke-opacity:1">
      <path
         d="M 504.448,333.613 C 502.199,333.613 500.25,333.113 498.5,332.064 C 496.751,331.014 495.402,329.565 494.452,327.715 C 493.453,325.866 492.953,323.717 492.953,321.218 C 492.953,318.669 493.453,316.42 494.402,314.571 C 495.352,312.721 496.751,311.272 498.55,310.222 C 500.4,309.173 502.549,308.623 505.098,308.623 C 506.997,308.623 508.696,308.873 510.196,309.423 C 511.695,309.922 513.145,310.622 514.544,311.572 L 513.644,313.021 C 512.495,312.272 511.195,311.622 509.796,311.122 C 508.397,310.672 506.897,310.422 505.298,310.372 C 502.099,310.422 499.6,311.372 497.851,313.221 C 496.051,315.12 495.102,317.719 495.052,321.018 L 515.494,321.018 C 515.494,321.068 515.494,321.268 515.494,321.568 C 515.444,321.868 515.394,322.268 515.344,322.717 C 515.144,324.867 514.594,326.716 513.694,328.365 C 512.795,330.014 511.545,331.264 509.996,332.214 C 508.447,333.163 506.597,333.613 504.448,333.613 z M 498.051,329.415 C 499.7,331.014 501.849,331.814 504.498,331.814 C 507.147,331.764 509.196,330.964 510.646,329.365 C 512.095,327.765 512.945,325.566 513.295,322.767 L 495.052,322.767 C 495.402,325.616 496.401,327.865 498.051,329.415 z"
         style="fill:#0066a4;fill-opacity:1;fill-rule:nonzero;stroke:#0066a4;stroke-width:1.60934901;stroke-miterlimit:4;stroke-dasharray:none;stroke-opacity:1"
         id="path4247" />
    </g>
    <g
       transform="matrix(3.3667688,0,0,-3.3667688,-92.1228,1276.7812)"
       id="g4249"
       style="fill:#0066a4;fill-opacity:1;stroke:#0066a4;stroke-width:1.61511505;stroke-miterlimit:4;stroke-dasharray:none;stroke-opacity:1">
      <path
         d="M 341.014,282.433 C 339.164,282.383 337.365,282.084 335.616,281.484 C 333.866,280.884 332.317,280.134 330.968,279.285 L 330.968,257.743 L 332.967,257.743 L 332.967,278.335 C 333.866,278.885 335.016,279.435 336.415,279.884 C 337.865,280.334 339.364,280.584 340.914,280.634 C 343.762,280.634 345.862,279.984 347.211,278.685 C 348.611,277.335 349.31,275.336 349.26,272.637 L 349.26,257.743 L 351.309,257.743 L 351.309,272.837 C 351.309,276.186 350.41,278.585 348.66,280.134 C 346.911,281.684 344.362,282.483 341.014,282.433 z"
         style="fill:#0066a4;fill-opacity:1;fill-rule:nonzero;stroke:#0066a4;stroke-width:1.61511505;stroke-miterlimit:4;stroke-dasharray:none;stroke-opacity:1"
         id="path4251" />
    </g>
    <g
       transform="matrix(3.4545791,0,0,-3.4545791,1090.5999,1121.9207)"
       id="g4253"
       style="fill:#0066a4;fill-opacity:1;stroke:#0066a4;stroke-width:1.57411969;stroke-miterlimit:4;stroke-dasharray:none;stroke-opacity:1">
      <path
         d="M 7.097,237.501 L 4.998,237.501 L 4.998,213.661 C 5.048,211.312 5.698,209.513 6.947,208.263 C 8.247,207.014 9.996,206.364 12.245,206.364 C 13.095,206.364 13.994,206.464 14.944,206.614 C 15.894,206.764 16.743,207.014 17.493,207.314 L 17.493,209.163 C 16.843,208.913 16.094,208.713 15.244,208.513 C 14.444,208.363 13.545,208.263 12.595,208.213 C 10.946,208.213 9.696,208.563 8.846,209.263 C 7.947,209.962 7.397,211.012 7.197,212.411 C 7.147,212.661 7.147,212.961 7.097,213.311 C 7.097,213.661 7.097,213.961 7.097,214.261 L 7.097,228.805 L 15.644,228.805 L 15.644,230.754 L 7.097,230.754 L 7.097,237.501 z"
         style="fill:#0066a4;fill-opacity:1;fill-rule:nonzero;stroke:#0066a4;stroke-width:1.57411969;stroke-miterlimit:4;stroke-dasharray:none;stroke-opacity:1"
         id="path4255" />
    </g>
    <g
       transform="matrix(3.3714426,0,0,-3.3714426,-689.79395,1277.9858)"
       id="g4257"
       style="fill:#0066a4;fill-opacity:1;stroke:#0066a4;stroke-width:1.61287606;stroke-miterlimit:4;stroke-dasharray:none;stroke-opacity:1">
      <path
         d="M 560.526,280.234 C 561.425,279.984 562.225,279.485 562.925,278.835 L 564.474,280.184 C 563.774,280.934 562.875,281.534 561.725,281.934 C 560.626,282.284 559.226,282.483 557.527,282.483 C 556.677,282.483 555.828,282.433 554.978,282.284 C 554.128,282.134 553.328,281.884 552.579,281.584 C 551.279,281.034 550.33,280.334 549.73,279.435 C 549.13,278.585 548.83,277.635 548.88,276.636 L 548.88,257.743 L 550.979,257.743 L 550.979,275.786 C 550.929,276.736 551.079,277.535 551.429,278.235 C 551.729,278.885 552.379,279.435 553.428,279.884 C 554.078,280.134 554.778,280.334 555.478,280.484 C 556.127,280.584 556.877,280.634 557.627,280.634 C 558.626,280.684 559.576,280.534 560.526,280.234 z"
         style="fill:#0066a4;fill-opacity:1;fill-rule:nonzero;stroke:#0066a4;stroke-width:1.61287606;stroke-miterlimit:4;stroke-dasharray:none;stroke-opacity:1"
         id="path4259" />
    </g>
    <path
       style="fill:#0066a4;fill-opacity:1"
       d="M 1449.8663,412.97052 C 1442.7308,412.6163 1436.342,411.22823 1430.6073,408.78608 C 1428.9752,408.09132 1426.1574,406.62227 1424.7164,405.71521 C 1415.5885,399.97049 1409.5231,391.44315 1406.6533,380.31966 C 1406.4429,379.50463 1406.2587,378.82499 1406.2425,378.80925 C 1406.2275,378.79353 1406.0532,379.28761 1405.8556,379.90752 C 1404.7778,383.29137 1403.115,386.78768 1401.1328,389.83738 C 1394.4022,400.19108 1383.012,407.09021 1368.711,409.47479 C 1362.0314,410.58931 1355.9341,410.7539 1323.6573,410.69214 L 1306.5863,410.65939 L 1306.5863,338.30591 L 1306.5863,265.95231 L 1326.338,265.99658 C 1346.0665,266.04085 1347.5996,266.06488 1352.0278,266.40284 C 1364.8749,267.38362 1373.6182,270.26613 1380.5502,275.80573 C 1388.5727,282.21718 1392.9546,292.36081 1392.39,303.21638 C 1391.8794,313.03229 1387.509,321.34923 1379.6452,327.47015 C 1379.1167,327.88153 1378.7423,328.23536 1378.8118,328.25582 C 1381.7812,329.14455 1386.0385,331.06248 1388.9707,332.83329 C 1396.9484,337.65106 1403.0284,344.7523 1405.8081,352.49779 C 1406.0344,353.12836 1406.2519,353.68223 1406.2913,353.72846 C 1406.3302,353.77476 1406.4121,353.6237 1406.4717,353.39315 C 1406.7523,352.31155 1407.4076,350.254 1407.8853,348.95164 C 1409.9185,343.41819 1412.9525,338.23429 1416.7977,333.72454 C 1418.6676,331.5319 1421.8131,328.60384 1424.2322,326.80213 C 1433.9373,319.57778 1446.2795,316.54897 1459.8155,318.0697 C 1468.9198,319.09277 1476.5843,322.12195 1483.0096,327.23846 C 1484.6519,328.54642 1487.6493,331.54507 1488.9654,333.19815 C 1492.8563,338.08278 1495.4181,343.20887 1496.88,349.03178 C 1497.0916,349.87729 1497.2866,350.58924 1497.3114,350.6143 C 1497.3368,350.6392 1497.3565,331.77653 1497.3565,308.69752 L 1497.3565,266.7343 L 1509.7592,266.7343 L 1522.1609,266.7343 L 1522.1609,338.70453 L 1522.1609,410.67466 L 1509.7592,410.67466 L 1497.3565,410.67466 L 1497.3565,391.66495 L 1497.3565,372.65444 L 1464.1108,372.65444 L 1430.8661,372.65444 L 1430.929,373.41241 C 1431.2511,377.27165 1432.8817,381.55416 1435.2072,384.64787 C 1438.9805,389.66901 1444.522,392.63635 1451.9145,393.59564 C 1453.7977,393.83978 1458.593,393.83952 1460.5815,393.59538 C 1466.442,392.87438 1471.5145,391.12912 1476.0813,388.26246 C 1476.7479,387.84401 1477.5593,387.30679 1477.8854,387.0677 L 1478.4778,386.63458 L 1479.2797,387.56943 C 1479.7222,388.08306 1482.3161,391.13316 1485.0456,394.34555 C 1487.7748,397.5592 1490.0997,400.28916 1490.2115,400.41296 L 1490.4136,400.63828 L 1489.8863,401.11046 C 1488.9665,401.93458 1487.2034,403.27962 1485.7684,404.25141 C 1478.3522,409.27218 1469.179,412.13918 1458.1876,412.8715 C 1456.0823,413.01164 1451.7359,413.06339 1449.8663,412.97052 z M 1356.0027,390.09704 C 1357.563,389.959 1359.4112,389.72874 1360.3118,389.56049 C 1367.8122,388.15816 1373.3276,384.8745 1376.7423,379.77938 C 1381.0522,373.3492 1381.7267,363.62595 1378.353,356.56501 C 1377.3618,354.49179 1376.1775,352.79891 1374.5404,351.12002 C 1371.8077,348.31539 1368.5731,346.36715 1364.3344,344.9729 C 1361.4972,344.04003 1358.3293,343.51687 1353.2254,343.13926 C 1352.0141,343.04948 1348.8515,343.01518 1341.8291,343.01477 L 1332.1086,343.01372 L 1332.0842,366.5252 C 1332.0701,379.45653 1332.0812,390.09356 1332.1077,390.16353 C 1332.1475,390.26847 1334.1225,390.28346 1343.4809,390.24685 C 1350.5885,390.21941 1355.2514,390.16345 1356.0027,390.09704 z M 1473.8428,354.00363 C 1473.4465,351.93437 1472.7182,349.71969 1471.8219,347.85019 C 1469.7526,343.53658 1466.845,340.56719 1462.7829,338.62148 C 1459.7222,337.15542 1456.6998,336.51808 1452.824,336.52253 C 1449.7889,336.52619 1447.3437,336.94018 1444.8698,337.87074 C 1438.4745,340.27574 1433.8856,345.49993 1431.7983,352.75019 C 1431.617,353.38274 1431.4405,354.06938 1431.4076,354.27545 L 1431.3475,354.64968 L 1452.6572,354.64968 L 1473.9662,354.64968 L 1473.8428,354.00363 z M 1345.803,323.52746 C 1350.148,323.19618 1353.2097,322.42806 1356.1939,320.92021 C 1357.9681,320.02383 1359.1576,319.19763 1360.4407,317.97073 C 1363.2538,315.28001 1364.9489,311.8848 1365.6279,307.57975 C 1365.8404,306.23107 1365.9193,303.31935 1365.7801,301.97363 C 1365.3383,297.70459 1363.7089,294.20792 1360.9183,291.53782 C 1359.6259,290.3017 1358.4354,289.47433 1356.673,288.58833 C 1351.9807,286.23036 1346.7908,285.45078 1336.2743,285.52394 L 1332.1086,285.55326 L 1332.0842,304.51482 C 1332.0701,314.94429 1332.0821,323.5373 1332.1105,323.61031 C 1332.1533,323.72332 1333.1054,323.73529 1338.3117,323.68696 C 1341.6944,323.65552 1345.0658,323.5839 1345.803,323.52746 z M 1538.8245,338.70453 L 1538.8245,266.7343 L 1551.0355,266.7343 L 1563.2456,266.7343 L 1563.2456,338.70453 L 1563.2456,410.67466 L 1551.0355,410.67466 L 1538.8245,410.67466 L 1538.8245,338.70453 z"
       id="path2536" />
    <g
       transform="matrix(3.3788314,0,0,-3.3788314,-452.55189,1451.8051)"
       id="g3269"
       style="fill:#0066a4;fill-opacity:1;stroke:#0066a4;stroke-width:1.60934901;stroke-miterlimit:4;stroke-dasharray:none;stroke-opacity:1">
      <path
         d="M 504.448,333.613 C 502.199,333.613 500.25,333.113 498.5,332.064 C 496.751,331.014 495.402,329.565 494.452,327.715 C 493.453,325.866 492.953,323.717 492.953,321.218 C 492.953,318.669 493.453,316.42 494.402,314.571 C 495.352,312.721 496.751,311.272 498.55,310.222 C 500.4,309.173 502.549,308.623 505.098,308.623 C 506.997,308.623 508.696,308.873 510.196,309.423 C 511.695,309.922 513.145,310.622 514.544,311.572 L 513.644,313.021 C 512.495,312.272 511.195,311.622 509.796,311.122 C 508.397,310.672 506.897,310.422 505.298,310.372 C 502.099,310.422 499.6,311.372 497.851,313.221 C 496.051,315.12 495.102,317.719 495.052,321.018 L 515.494,321.018 C 515.494,321.068 515.494,321.268 515.494,321.568 C 515.444,321.868 515.394,322.268 515.344,322.717 C 515.144,324.867 514.594,326.716 513.694,328.365 C 512.795,330.014 511.545,331.264 509.996,332.214 C 508.447,333.163 506.597,333.613 504.448,333.613 z M 498.051,329.415 C 499.7,331.014 501.849,331.814 504.498,331.814 C 507.147,331.764 509.196,330.964 510.646,329.365 C 512.095,327.765 512.945,325.566 513.295,322.767 L 495.052,322.767 C 495.402,325.616 496.401,327.865 498.051,329.415 z"
         style="fill:#0066a4;fill-opacity:1;fill-rule:nonzero;stroke:#0066a4;stroke-width:1.60934901;stroke-miterlimit:4;stroke-dasharray:none;stroke-opacity:1"
         id="path3271" />
    </g>
  </g>
</svg>
